<?xml version="1.0" standalone="no"?>
<!DOCTYPE svg PUBLIC "-//W3C//DTD SVG 20010904//EN"
 "http://www.w3.org/TR/2001/REC-SVG-20010904/DTD/svg10.dtd">
<svg version="1.0" xmlns="http://www.w3.org/2000/svg"
 width="700.000000pt" height="700.000000pt" viewBox="0 0 700.000000 700.000000"
 preserveAspectRatio="xMidYMid meet">
<metadata>
Created by potrace 1.11, written by Peter Selinger 2001-2013
</metadata>
<g transform="translate(0.000000,700.000000) scale(0.100000,-0.100000)"
fill="#000000" stroke="none">
<path d="M1750 6961 c0 -23 0 -42 -1 -43 0 -2 -6 -35 -14 -74 -24 -127 -84
-226 -195 -324 -178 -156 -220 -226 -225 -372 -3 -83 7 -133 41 -207 70 -154
222 -251 394 -251 445 0 583 598 255 1100 -71 109 -160 189 -227 205 -27 7
-28 6 -28 -34z"/>
<path d="M3499 6969 c-2 -95 -23 -187 -62 -268 -31 -63 -73 -110 -235 -264
-105 -99 -143 -190 -136 -327 11 -229 176 -402 400 -417 129 -10 232 26 318
110 178 173 201 519 56 834 -86 186 -216 335 -312 358 -26 7 -28 5 -29 -26z"/>
<path d="M5249 6969 c-8 -195 -65 -321 -202 -441 -92 -81 -143 -134 -174 -179
-68 -102 -79 -276 -23 -396 40 -85 87 -144 154 -189 170 -115 414 -93 545 51
144 159 178 444 85 715 -80 230 -238 437 -356 465 -26 7 -28 5 -29 -26z"/>
<path d="M1421 4709 c0 -419 -2 -763 -4 -765 -3 -3 -101 -6 -218 -8 -157 -3
-229 -8 -271 -20 -258 -72 -451 -290 -485 -546 -4 -34 -8 -3294 -4 -3358 1
-10 617 -12 3063 -10 l3061 3 0 1655 c0 910 -3 1678 -6 1705 -35 277 -252 507
-528 559 -36 7 -149 13 -253 14 -104 1 -190 3 -193 5 -2 3 -4 347 -4 766 l1
761 -329 0 -329 0 -1 -732 c0 -403 0 -749 0 -768 l-1 -35 -527 2 c-291 1 -536
2 -545 3 -17 0 -18 43 -18 765 l0 765 -330 0 -330 0 -2 -766 -3 -766 -542 -2
-543 -1 -1 30 c0 17 0 362 -1 768 l0 737 -328 0 -328 0 -1 -761z m4426 -1434
c19 -3 38 -15 45 -28 10 -16 13 -123 14 -423 l1 -402 -56 -43 c-128 -102 -190
-130 -294 -134 -106 -4 -185 26 -304 117 -37 28 -70 54 -73 58 -10 12 -136
107 -175 131 -74 47 -183 90 -280 110 -85 18 -292 20 -383 3 -171 -31 -279
-84 -451 -222 -212 -171 -259 -194 -391 -195 -75 -1 -93 3 -150 29 -54 25
-168 104 -216 149 -47 42 -168 127 -228 159 -60 32 -189 73 -259 83 -65 10
-278 10 -333 1 -85 -14 -141 -32 -221 -68 -96 -45 -143 -76 -280 -187 -164
-133 -223 -162 -333 -168 -117 -5 -203 29 -331 132 l-56 45 1 403 1 403 24 26
c23 24 30 26 145 28 241 6 4551 -1 4583 -7z m-1199 -1163 c53 -17 168 -94 255
-171 148 -132 328 -216 501 -236 157 -19 320 -6 439 34 31 11 58 19 58 18 6
-8 4 -1084 -2 -1092 -5 -7 -818 -10 -2406 -9 l-2398 0 0 550 c0 482 2 549 15
547 8 -1 46 -11 84 -22 173 -51 421 -44 591 17 87 30 196 97 310 189 207 168
272 198 407 191 101 -6 188 -48 323 -159 118 -95 191 -147 260 -181 59 -30
163 -66 208 -73 159 -25 284 -25 411 1 156 31 262 87 455 239 74 59 157 118
185 132 93 47 205 57 304 25z"/>
</g>
</svg>
