<svg aria-hidden="true" focusable="false" role="img" xmlns="http://www.w3.org/2000/svg" fill="none" viewBox="0 0 655 170"><path fill="#000" d="M71.408 115.152c8.352 0 17.28-6.192 24.912-14.256.864-1.008 1.296-2.16 1.296-3.168 0-1.44-.864-2.736-2.448-3.456-3.312 3.024-10.08 7.2-14.688 7.2-3.024 0-4.752-2.16-5.472-5.904l-7.776-37.44C82.64 44.88 95.744 29.904 95.744 8.448c0-2.736-1.296-8.208-8.208-8.208-4.032 0-6.912 1.872-9.504 3.744 1.44 15.84-3.024 32.4-12.528 45.504L58.16 13.92h.432c3.312 0 5.04-2.88 5.04-5.616 0-1.44-.576-2.88-2.016-3.744-6.192 3.456-18.432-2.88-30.384-2.88-16.992 0-23.904 10.368-23.904 19.44 0 7.2 4.32 13.68 11.664 13.68 2.016 0 4.032-.432 6.192-1.44-1.728-2.016-2.88-5.184-2.88-8.352 0-6.192 4.032-12.96 15.12-13.968l11.52 54.288C36.128 88.656 24.464 99.6 16.976 103.056v-1.152c0-3.312.576-9.216 3.024-14.832-2.016-1.584-4.608-2.448-7.2-2.448-6.48 0-12.24 2.448-12.24 10.8 0 12.816 5.184 19.728 12.384 19.728 10.944 0 24.912-13.248 38.592-37.44l5.184 24.192c1.872 9.072 7.776 13.248 14.688 13.248z"/><path fill="#000" d="M126.433 40.704c-21.744 0-36.864 27.216-36.864 48.96 0 13.536 6.336 25.488 21.168 25.488 22.608 0 38.016-27.216 38.016-48.672 0-14.112-6.624-25.776-22.32-25.776zm3.168 10.944c5.904 0 8.352 5.904 8.352 13.68 0 15.12-9.216 37.296-20.592 37.296-5.04 0-9.36-4.896-9.36-17.568 0-14.112 8.496-33.408 21.6-33.408z"/><path fill="#000" d="M198.673 115.152c9.648 0 17.711-6.624 24.479-14.256.864-1.008 1.297-2.16 1.297-3.168 0-1.44-.864-2.736-2.448-3.456-3.6 3.6-9.793 7.2-15.121 7.2-3.744 0-6.047-2.592-4.319-10.656l10.08-47.664c-1.729-1.152-4.177-1.872-6.769-1.872-5.184 0-10.079 2.448-11.519 9.072l-4.177 19.584c-3.312 3.888-6.768 6.336-10.944 6.336-4.32 0-6.191-2.592-4.895-8.496l4.031-18.576c1.297-5.472-1.728-7.92-6.912-7.92-6.048 0-11.232 3.024-16.128 6.912-2.88 2.304-1.872 6.768 0 7.92 1.296-1.152 2.16-1.728 2.88-1.728 1.296 0 2.016 1.296 1.44 3.6l-1.584 7.2c-2.448 10.8-2.879 24.768 13.105 24.768 5.76 0 11.663-2.88 16.703-9.072l-2.448 11.664c-3.887 18.576 6.048 22.608 13.249 22.608z"/><path fill="#000" d="M221.505 87.504c-2.88 13.392-2.016 27.504 12.24 27.504 7.2 0 13.681-4.752 19.297-11.664-1.872 6.336-3.457 12.096-5.041 17.28-22.464 1.152-41.472 10.944-41.472 31.104 0 10.512 8.352 17.712 16.56 17.712 21.168 0 32.112-17.712 39.024-38.448 18.432 3.456 34.849 10.368 49.969 10.368 10.08 0 15.84-9.36 11.664-21.456-4.032 2.88-10.656 4.176-16.992 4.176-10.512 0-25.92-2.304-41.616-3.312 1.872-6.912 3.456-13.968 4.896-20.592l12.239-57.024c-1.728-1.152-4.176-1.872-6.768-1.872-5.184 0-10.655 2.448-12.095 9.072l-9.361 43.056c-3.312 3.168-6.911 5.184-11.087 5.184-4.752 0-5.905-3.456-4.897-7.92l8.928-41.472c1.152-5.472-1.728-7.92-6.912-7.92-6.048 0-11.232 3.024-16.128 6.912-2.88 2.304-1.872 6.768 0 7.92 1.296-1.152 2.16-1.728 2.88-1.728 1.296 0 2.016 1.296 1.44 3.6l-6.768 29.52zm2.593 69.12c-2.448 0-5.905-2.16-5.905-6.768 0-11.664 10.08-20.736 24.192-20.736h2.881c-6.336 19.152-11.952 27.504-21.168 27.504z"/><path fill="#000" d="M373.423 94.272c-3.6 16.848 5.04 20.88 13.68 20.88 8.352 0 16.704-6.48 25.056-14.256.864-1.008 1.296-2.16 1.296-3.168 0-1.44-.864-2.736-2.448-3.456-3.312 2.88-10.08 7.2-14.688 7.2-3.888 0-6.48-2.304-4.752-10.656l15.264-70.704c10.224-2.736 11.952-16.416 3.6-19.584-4.032 2.88-10.656 4.176-16.992 4.176-15.84 0-51.408-1.728-66.816-1.728-14.976 0-41.616 5.184-41.616 27.648 0 7.488 4.752 15.12 18.144 11.52-1.584-2.592-2.016-5.04-2.016-7.488 0-12.24 8.208-19.44 16.992-21.168l-22.608 99.792c1.584 1.152 4.32 1.872 7.632 1.872 5.328 0 10.944-2.448 12.384-9.216l19.728-92.448c6.192.432 12.528 1.152 18.72 1.872l-22.176 97.92c1.584 1.152 4.32 1.872 7.632 1.872 5.328 0 10.944-2.448 12.384-9.216l18.864-88.56c6.624.864 12.816 1.728 18.576 2.304l-15.84 74.592z"/><path fill="#000" d="M483.082 48.192c-6.048 4.896-11.377 11.088-17.137 14.688-2.304-4.176-6.48-6.624-11.376-6.624-8.208 0-11.376 7.2-8.352 15.12 1.584 1.008 4.032 1.584 6.624 1.728.432 2.016.72 4.032.72 5.904 0 12.96-9.216 23.616-16.56 23.616-5.04 0-9.359-4.896-9.359-17.568 0-14.112 8.495-33.408 21.599-33.408 3.456 0 6.48.576 9.216 1.584 2.16.864 4.609-.72 4.897-4.032-4.32-6.48-10.081-8.496-17.281-8.496-21.744 0-36.863 27.216-36.863 48.96 0 13.536 6.336 25.488 21.168 25.488 17.28 0 37.583-21.744 37.583-43.776 0-.432.001-1.008-.143-1.584 5.904-3.744 11.52-10.512 15.264-13.68 2.016-1.728 2.736-5.616 0-7.92z"/><path fill="#000" d="M464.693 166.416c1.728 1.152 4.176 1.872 6.768 1.872 5.184 0 10.224-2.448 11.664-9.072l9.936-47.808c2.88 2.448 6.48 3.744 9.936 3.744 24.624 0 40.32-28.512 40.32-50.112 0-13.104-5.616-23.76-18.288-23.76-7.2 0-13.968 4.464-19.584 11.376l.72-3.456c1.296-5.472-1.728-7.92-6.912-7.92-6.048 0-11.232 3.024-16.128 6.912-2.88 2.304-1.872 6.768 0 7.92 1.296-1.152 2.16-1.728 2.88-1.728 1.296 0 2.016 1.296 1.44 3.6l-22.752 108.432zM517.109 55.68c4.896 0 8.496 4.464 8.496 14.544 0 14.256-8.784 33.84-23.472 33.84-2.304 0-4.608-.144-7.2-1.584l7.92-37.584c4.752-5.904 9.936-9.216 14.256-9.216z"/><path fill="#000" d="M574.65 49.2c1.296-5.472-1.728-7.92-6.912-7.92-6.048 0-11.232 3.024-16.128 6.912-2.88 2.304-1.872 6.768 0 7.92 1.296-1.152 2.16-1.728 2.88-1.728 1.296 0 2.016 1.296 1.44 3.6l-11.808 55.296c1.728 1.152 4.176 1.872 6.768 1.872 5.184 0 10.656-2.448 12.096-9.072l8.784-41.04c3.888-4.608 8.064-7.488 13.248-7.488 4.752 0 4.464 3.888 3.456 8.496l-10.08 47.232c1.728 1.152 4.176 1.872 6.768 1.872 5.184 0 10.656-2.448 12.096-9.072l8.928-41.904c3.744-4.032 7.632-6.624 12.528-6.624 4.752 0 4.608 3.888 3.456 8.496l-6.048 28.656c-3.6 16.848 4.032 20.448 11.232 20.448 9.648 0 19.296-6.624 26.064-14.256.864-1.008 1.296-2.16 1.296-3.168 0-1.44-.864-2.736-2.448-3.456-3.6 3.6-9.792 7.2-15.12 7.2-2.88 0-4.752-1.728-3.888-5.904l7.056-33.12c3.744-16.848-5.616-21.168-12.096-21.168-8.352 0-15.552 6.192-21.6 14.832.432-10.224-6.192-14.832-12.096-14.832-8.208 0-15.408 5.904-21.312 14.4l1.44-6.48z"/></svg>
