<svg xmlns="http://www.w3.org/2000/svg" viewBox="0 0 822 113"><path class="char" fill="currentColor" d="M33.104 111v-2.016l-12.096-3.888 25.344-40.608 25.92 40.608-10.224 3.888V111h41.616v-2.016l-10.08-3.888-36.288-56.16L82.928 8.472l11.088-4.896V1.56h-28.08v2.016l11.808 4.032L54.56 44.616 30.512 7.032l10.08-3.456V1.56H.128v2.016L10.64 8.04l32.832 51.84-28.656 45.216-10.368 3.888V111h28.656z"/><path class="char" fill="currentColor" d="M148.205 112.584c27.648 0 53.856-24.048 53.856-57.312 0-31.68-23.76-54.864-51.264-54.864-27.216 0-52.56 22.608-52.56 56.592 0 32.4 22.896 55.584 49.968 55.584zm5.184-5.328c-17.712 0-35.136-18.864-35.136-55.296 0-34.128 15.552-46.224 29.376-46.224 19.44 0 33.408 18.864 33.408 56.016 0 30.096-10.512 45.504-27.648 45.504z"/><path class="char" fill="currentColor" d="M307.529 1.56h-39.456v2.016l10.8 4.464v46.368c-5.04 1.872-12.528 4.896-24.048 4.896-13.248 0-19.008-6.048-19.008-20.16V8.04l10.8-4.464V1.56h-39.456v2.016l10.8 4.464v31.104c0 19.44 9.216 27.936 30.528 27.936 15.408 0 25.056-4.176 30.384-6.768v43.344l-11.952 5.328V111h40.608v-2.016l-10.8-5.328V8.04l10.8-4.464V1.56z"/><path class="char" fill="currentColor" d="M381.932 3.576l12.96 3.888-26.352 59.904-27.216-60.48 10.08-3.312V1.56H310.94v2.016l11.52 4.32 37.296 79.056c-5.616 10.944-10.944 14.688-17.568 14.688-5.328 0-8.64-3.024-8.64-9.504 0-3.312 1.008-7.488 2.592-12.528h-2.16L323.9 105.96c2.016 2.88 6.336 6.48 14.112 6.48 13.104 0 18.576-7.344 28.368-28.944l33.84-75.168 11.088-4.752V1.56h-29.376v2.016z"/><path class="char" fill="currentColor" d="M496.751 111v-2.016l-10.8-5.328V7.752h23.904l10.512 16.128h3.168l-5.04-22.32h-82.8l-5.04 22.32h3.024l10.512-16.128h23.904v95.904l-10.8 5.328V111h39.456z"/><path class="char" fill="currentColor" d="M576.98 112.584c27.648 0 53.856-24.048 53.856-57.312 0-31.68-23.76-54.864-51.264-54.864-27.216 0-52.56 22.608-52.56 56.592 0 32.4 22.896 55.584 49.968 55.584zm5.184-5.328c-17.712 0-35.136-18.864-35.136-55.296 0-34.128 15.552-46.224 29.376-46.224 19.44 0 33.408 18.864 33.408 56.016 0 30.096-10.512 45.504-27.648 45.504z"/><path class="char" fill="currentColor" d="M639.975 1.56v2.016l10.8 4.464v95.616l-10.8 5.328V111h39.456v-2.016l-10.8-5.328V51.96c6.768 10.08 13.536 13.248 23.328 13.248 20.592 0 32.544-14.976 32.544-33.12 0-20.448-16.416-30.528-41.616-30.528h-42.912zm48.528 60.192c-7.632 0-13.824-4.32-19.872-13.248V8.184h10.08c21.456 0 29.232 9.792 29.232 26.064 0 15.12-6.192 27.504-19.44 27.504z"/><path class="char" fill="currentColor" d="M794.769 111v-2.016l-10.8-5.328V7.752h23.904l10.512 16.128h3.168l-5.04-22.32h-82.8l-5.04 22.32h3.024l10.512-16.128h23.904v95.904l-10.8 5.328V111h39.456z"/></svg>
