<svg xmlns="http://www.w3.org/2000/svg" role="img" aria-label="Название бренда 'ХочуТорт'" focusable="false" viewBox="0 0 1322 188"><path class="char" fill="currentColor" d="M53.88 185v-3.12L33 175.4l43.44-69.6 44.16 69.6-17.04 6.48V185h64.8v-3.12l-16.56-6.48-59.28-92.16 43.68-69.6 18-7.92V2.6h-46.8v3.12l20.4 6.72-39.6 63.84-41.28-64.32 16.8-6.24V2.6H.36v3.12l17.28 7.44L71.88 98.6 23.4 175.4l-17.04 6.48V185h47.52z"/><path class="char" fill="currentColor" d="M243.542 187.64c46.08 0 89.76-40.08 89.76-95.52 0-52.8-39.6-91.44-85.44-91.44-45.36 0-87.6 37.68-87.6 94.32 0 54 38.16 92.64 83.28 92.64zm8.16-8.88c-30.24 0-62.4-31.44-62.4-92.4 0-57.36 29.52-76.8 53.52-76.8 33.6 0 60 30.96 60 92.4 0 52.56-22.56 76.8-51.12 76.8z"/><path class="char" fill="currentColor" d="M504.917 2.6h-61.92v3.12l18 7.44v77.52c-7.68 2.88-21.84 8.4-42.24 8.4-22.8 0-32.88-10.08-32.88-34.08V13.16l18-7.44V2.6h-61.92v3.12l18 7.44V65c0 31.92 15.12 45.84 50.4 45.84 25.68 0 42.72-7.44 50.64-11.28v73.92l-19.44 8.4V185h63.36v-3.12l-18-8.4V13.16l18-7.44V2.6z"/><path class="char" fill="currentColor" d="M627.497 5.72l21.84 6.48-45.36 103.92-46.8-104.88 16.8-5.52V2.6h-63.6v3.12l18.72 6.96 62.16 132.72c-9.6 19.2-18.48 25.92-30 25.92-8.64 0-14.16-5.28-14.16-15.6 0-5.76 1.68-12.96 4.32-21.12h-3.6l-16.08 42c3.36 4.8 10.56 10.8 23.52 10.8 21.84 0 30.48-12.24 46.32-47.52l56.16-126.72 18.24-7.44V2.6h-48.48v3.12z"/><path class="char" fill="currentColor" d="M780.934 185v-3.12l-18-8.4V12.44h42.48l17.28 27.36h4.56l-8.4-37.2h-138l-8.4 37.2h4.8l17.04-27.36h42.72v161.04l-18 8.4V185h61.92z"/><path class="char" fill="currentColor" d="M916.009 187.64c46.08 0 89.761-40.08 89.761-95.52 0-52.8-39.601-91.44-85.441-91.44-45.36 0-87.6 37.68-87.6 94.32 0 54 38.16 92.64 83.28 92.64zm8.16-8.88c-30.24 0-62.4-31.44-62.4-92.4 0-57.36 29.52-76.8 53.52-76.8 33.6 0 60 30.96 60 92.4 0 52.56-22.56 76.8-51.12 76.8z"/><path class="char" fill="currentColor" d="M1021.16 2.6v3.12l18 7.44v160.32l-18 8.4V185h61.92v-3.12l-18-8.4V86.36c11.52 17.52 23.52 23.04 40.32 23.04 34.08 0 54.24-24.48 54.24-55.68 0-34.08-27.6-51.12-69.6-51.12h-68.88zm79.68 101.52c-13.92 0-25.2-7.2-35.76-22.56V12.92H1085c35.04 0 50.16 15.84 50.16 43.92 0 26.4-11.52 47.28-34.32 47.28z"/><path class="char" fill="currentColor" d="M1275.03 185v-3.12l-18-8.4V12.44h42.48l17.28 27.36h4.56l-8.4-37.2h-138l-8.4 37.2h4.8l17.04-27.36h42.72v161.04l-18 8.4V185h61.92z"/></svg>
