<svg xmlns="http://www.w3.org/2000/svg" role="img" aria-label="Название бренда 'ХочуТорт'" focusable="false" viewBox="0 0 1230 279"><path class="char" fill="currentColor" d="M64.224 219.296v-3.744l-25.056-7.776 52.128-83.52 52.992 83.52-20.448 7.776v3.744h77.76v-3.744l-19.872-7.776-71.136-110.592 52.416-83.52 21.6-9.504V.416h-56.16V4.16l24.48 8.064-47.52 76.608-49.536-77.184 20.16-7.488V.416H0V4.16l20.736 8.928 65.088 102.528-58.176 92.16L7.2 215.552v3.744h57.024z"/><path class="char" fill="currentColor" d="M267.779 222.464c52.416 0 71.712-48.672 71.712-80.928 0-31.392-18.432-75.168-70.848-75.168s-73.44 43.776-73.44 76.608c0 33.696 21.888 79.488 72.576 79.488zm4.032-10.656c-29.952 0-49.824-37.152-49.824-73.728 0-33.984 17.568-61.056 43.776-61.056 29.376 0 45.504 33.408 45.504 68.544 0 36-16.992 66.24-39.456 66.24z"/><path class="char" fill="currentColor" d="M492.878 70.688h-61.632v3.744l16.704 7.488v59.616c-9.216 4.32-18.72 7.2-30.816 7.2-16.704 0-23.904-8.064-23.904-26.496V81.92l16.704-7.488v-3.744h-61.92v3.744l18.72 7.488v39.456c0 24.192 7.2 38.016 39.744 38.016 17.28 0 32.256-5.184 41.472-9.216v57.888l-20.448 7.488v3.744h65.376v-3.744l-18.72-7.488V81.92l18.72-7.488v-3.744z"/><path class="char" fill="currentColor" d="M536.157 278.624c23.904 0 42.912-30.24 56.16-67.392l33.408-92.736c3.456-9.504 5.472-19.008 5.472-26.784 0-15.264-8.352-22.752-20.16-22.752-10.368 0-19.296 5.472-26.784 14.976l1.152 5.76c7.776-8.64 16.416-13.248 22.464-13.248 6.912 0 12.96 5.472 12.96 17.28 0 8.352-3.168 18.72-6.624 28.8l-24.48 69.12-45.792-120.96h-4.608l-40.32 6.912v3.744l24.768 8.064 25.632 67.104-50.112 99.936c6.912 10.368 22.176 22.176 36.864 22.176zm.576-12.672c-8.928 0-14.112-6.912-12.96-21.6 1.152-17.568 10.944-45.792 28.512-80.928l20.736 55.584c-1.152 16.128-17.856 46.944-36.288 46.944z"/><path class="char" fill="currentColor" d="M750.447 219.296v-3.744l-21.6-10.08V12.224h50.976l20.736 32.832h5.472L795.951.416h-165.6l-10.08 44.64h5.76l20.448-32.832h51.264v193.248l-21.6 10.08v3.744h74.304z"/><path class="char" fill="currentColor" d="M852.779 222.464c52.416 0 71.712-48.672 71.712-80.928 0-31.392-18.432-75.168-70.848-75.168s-73.44 43.776-73.44 76.608c0 33.696 21.888 79.488 72.576 79.488zm4.032-10.656c-29.952 0-49.824-37.152-49.824-73.728 0-33.984 17.568-61.056 43.776-61.056 29.376 0 45.504 33.408 45.504 68.544 0 36-16.992 66.24-39.456 66.24z"/><path class="char" fill="currentColor" d="M1002.36 276.896v-3.744l-18.718-7.488v-60.192c10.368 10.08 23.038 17.856 39.748 17.856 35.13 0 57.02-34.272 57.02-75.744 0-45.504-26.78-81.216-74.3-81.216-15.844 0-31.685 3.168-67.396 10.944v4.032l18.72 5.76v178.56l-18.72 7.488v3.744h63.646zm13.83-65.952c-11.24 0-24.772-7.2-32.548-15.552V79.04c6.336-1.44 11.808-2.304 16.988-2.304 31.97 0 52.42 32.544 52.42 72.864 0 34.848-15.55 61.344-36.86 61.344z"/><path class="char" fill="currentColor" d="M1221.86 70.688h-122.69l-7.2 43.2h4.61l17.56-33.696h33.12v127.872l-18.72 7.488v3.744h63.65v-3.744l-18.72-7.488V80.192h33.41l17.57 33.696h4.61l-7.2-43.2z"/></svg>
