<svg fill="#fff" viewBox="0 0 1230 279" xmlns="http://www.w3.org/2000/svg"><path clip-rule="evenodd" d="m55.872 11.232 20.16-7.488v-3.744h-76.032v3.744l20.736 8.928 65.088 102.528-58.176 92.16-20.448 7.776v3.744h57.024v-3.744l-25.056-7.776 52.128-83.52 52.992 83.52-20.448 7.776v3.744h77.76v-3.744l-19.872-7.776-71.136-110.592 52.416-83.52 21.6-9.504v-3.744h-56.16v3.744l24.48 8.064-47.52 76.608zm73.576-8.211 24.999 8.235-49.025 79.034-51.062-79.563 20.672-7.678v-2.049h-74.032v2.086l20.415 8.79 65.592 103.322-58.692 92.978-20.115 7.65v2.054h55.024v-2.007l-25.591-7.942 53.656-85.969 54.5 85.897-20.949 7.967v2.054h75.76v-2.061l-19.538-7.646-71.655-111.398 52.917-84.319 21.284-9.365v-2.091h-54.16v2.02zm193.025 190.084c11.238-16.004 16.018-36.026 16.018-51.985 0-15.526-4.563-34.094-15.568-48.756-10.974-14.621-28.393-25.412-54.28-25.412-25.891 0-43.965 10.796-55.589 25.61-11.65 14.847-16.851 33.772-16.851 49.998 0 16.657 5.416 36.311 17.079 51.778 11.638 15.435 29.498 26.71 54.497 26.71 25.846 0 43.483-11.978 54.694-27.943zm-87.652-4.329c-8.825-14.038-13.834-32.659-13.834-51.112 0-17.152 4.432-32.627 12.24-43.843 7.818-11.232 19.046-18.213 32.536-18.213 15.131 0 26.793 8.624 34.624 21.579 7.82 12.936 11.88 30.262 11.88 47.965 0 18.144-4.279 34.885-11.441 47.125-7.151 12.223-17.287 20.115-29.015 20.115-15.437 0-28.168-9.581-36.99-23.616zm213.129 18.872-20.448 7.488v3.744h65.376v-3.744l-18.72-7.488v-126.144l18.72-7.488v-3.744h-61.632v3.744l16.704 7.488v59.616c-9.216 4.32-18.72 7.2-30.816 7.2-16.704 0-23.904-8.064-23.904-26.496v-40.32l16.704-7.488v-3.744h-61.92v3.744l18.72 7.488v39.456c0 24.192 7.2 38.016 39.744 38.016 16.669 0 31.193-4.824 40.472-8.784.341-.145.674-.289 1-.432zm-98.936-134.309 18.72 7.488v40.133c0 12.048 1.806 21.221 7.409 27.409 5.586 6.167 15.168 9.607 31.335 9.607 17.089 0 31.922-5.129 41.071-9.132l1.401-.613v60.116l-20.448 7.488v2.045h63.376v-2.067l-18.72-7.488v-127.498l18.72-7.488v-2.067h-59.632v2.096l16.704 7.488v60.9l-.575.269c-9.315 4.367-18.965 7.295-31.241 7.295-8.497 0-14.805-2.052-18.959-6.667-4.132-4.591-5.945-11.516-5.945-20.829v-40.968l16.704-7.488v-2.096h-59.92zm242.361 137.141 33.409-92.739.001-.003c3.431-9.434 5.412-18.819 5.412-26.442 0-7.454-2.037-12.869-5.38-16.414-3.337-3.54-8.091-5.338-13.78-5.338-9.839 0-18.409 5.112-25.712 14.235l.678 3.39c3.547-3.694 7.242-6.587 10.784-8.62 3.978-2.284 7.824-3.517 11.082-3.517 3.735 0 7.262 1.486 9.839 4.57 2.567 3.072 4.121 7.642 4.121 13.71 0 8.544-3.23 19.066-6.678 29.124l-.003.01-25.392 71.693-46.514-122.867h-3.832l-39.405 6.755v2.175l24.532 7.987 25.959 67.962-50.046 99.805c3.394 4.926 8.695 10.166 14.905 14.214 6.416 4.183 13.715 7.038 20.802 7.038 11.496 0 21.965-7.271 31.284-19.374 9.305-12.086 17.327-28.824 23.934-47.354zm-92.082 45.552 50.112-99.936-25.632-67.104-24.768-8.064v-3.744l40.32-6.912h4.608l45.792 120.96 24.48-69.12c3.456-10.08 6.624-20.448 6.624-28.8 0-11.808-6.048-17.28-12.96-17.28-5.832 0-14.073 4.284-21.626 12.336-.281.3-.56.603-.838.912l-1.152-5.76c7.488-9.504 16.416-14.976 26.784-14.976 11.808 0 20.16 7.488 20.16 22.752 0 7.776-2.016 17.28-5.472 26.784l-33.408 92.736c-13.248 37.152-32.256 67.392-56.16 67.392-14.688 0-29.952-11.808-36.864-22.176zm73.728-37.44c-1.152 16.128-17.856 46.944-36.288 46.944-8.928 0-14.112-6.912-12.96-21.6 1.139-17.363 10.717-45.136 27.901-79.703l.611-1.225zm-50.245 25.272c-.583 7.44.419 13.092 2.853 16.917 2.477 3.891 6.347 5.755 11.104 5.755 4.892 0 9.599-2.044 13.885-5.268 4.288-3.225 8.212-7.672 11.565-12.593 6.692-9.82 11.243-21.723 11.835-30.012l.016-.217-21.615-57.941-1.028 2.056c-17.573 35.146-27.447 63.521-28.615 81.303zm205.071-38.171v-194.885h52.527l20.736 32.832h3.67l-9.628-42.64h-164.002l-9.628 42.64h3.954l20.448-32.832h52.819v194.885l-21.6 10.08v2.107h72.304v-2.107zm22.6 9.443v3.744h-74.304v-3.744l21.6-10.08v-193.248h-51.264l-20.448 32.832h-5.76l10.08-44.64h165.6l10.08 44.64h-5.472l-20.736-32.832h-50.976v193.248zm157.026-22.031c11.238-16.004 16.018-36.026 16.018-51.985 0-15.526-4.563-34.094-15.567-48.756-10.975-14.621-28.393-25.412-54.281-25.412-25.891 0-43.965 10.796-55.589 25.61-11.65 14.847-16.851 33.772-16.851 49.998 0 16.657 5.416 36.311 17.079 51.778 11.638 15.435 29.498 26.71 54.497 26.71 25.846 0 43.483-11.978 54.694-27.943zm-87.652-4.329c-8.825-14.038-13.834-32.659-13.834-51.112 0-17.152 4.432-32.627 12.24-43.843 7.818-11.232 19.046-18.213 32.536-18.213 15.131 0 26.793 8.624 34.624 21.579 7.82 12.936 11.88 30.262 11.88 47.965 0 18.144-4.279 34.885-11.441 47.125-7.151 12.223-17.287 20.115-29.015 20.115-15.437 0-28.168-9.581-36.99-23.616zm164.821 17.238c10.181 9.611 22.568 16.898 38.748 16.898 35.13 0 57.02-34.272 57.02-75.744 0-45.504-26.78-81.216-74.3-81.216-15.844 0-31.684 3.168-67.396 10.944v4.032l18.72 5.76v178.56l-18.72 7.488v3.744h63.646v-3.744l-18.718-7.488v-60.192c.331.322.664.641 1 .958zm16.718 67.399-18.718-7.488v-63.236l1.697 1.65c10.258 9.974 22.691 17.573 39.051 17.573 17.2 0 31.17-8.375 40.87-21.903 9.72-13.548 15.15-32.268 15.15-52.841 0-22.563-6.64-42.619-19.09-57.018-12.43-14.382-30.73-23.198-54.21-23.198-15.599 0-31.208 3.092-66.396 10.75v2.487l18.72 5.76v179.976l-18.72 7.488v2.067h61.646zm-18.718-78.044v-117.543l.778-.177c6.367-1.447 11.922-2.329 17.21-2.329 16.37 0 29.76 8.346 39.02 21.743 9.25 13.378 14.4 31.805 14.4 52.121 0 17.559-3.92 33.083-10.58 44.252-6.67 11.169-16.16 18.092-27.28 18.092-5.82 0-12.16-1.859-18.015-4.747-5.856-2.892-11.286-6.849-15.265-11.124zm130.898-116.593h34.72v129.549l-18.72 7.488v2.067h61.65v-2.067l-18.72-7.488v-129.549h35.02l17.56 33.696h2.83l-6.87-41.2h-121l-6.86 41.2h2.82zm-16.96 34.696h-4.61l7.2-43.2h122.69l7.2 43.2h-4.61l-17.57-33.696h-33.41v127.872l18.72 7.488v3.744h-63.65v-3.744l18.72-7.488v-127.872h-33.12zm-757.089 27.648c0 32.256-19.296 80.928-71.712 80.928-50.688 0-72.576-45.792-72.576-79.488 0-32.832 21.024-76.608 73.44-76.608s70.848 43.776 70.848 75.168zm-117.504-3.456c0 36.576 19.872 73.728 49.824 73.728 22.464 0 39.456-30.24 39.456-66.24 0-35.136-16.128-68.544-45.504-68.544-26.208 0-43.776 27.072-43.776 61.056zm702.504 3.456c0 32.256-19.296 80.928-71.712 80.928-50.688 0-72.576-45.792-72.576-79.488 0-32.832 21.024-76.608 73.44-76.608s70.848 43.776 70.848 75.168zm-117.504-3.456c0 36.576 19.872 73.728 49.824 73.728 22.464 0 39.456-30.24 39.456-66.24 0-35.136-16.128-68.544-45.504-68.544-26.208 0-43.776 27.072-43.776 61.056zm176.655 57.312c7.776 8.352 21.308 15.552 32.548 15.552 21.31 0 36.86-26.496 36.86-61.344 0-40.32-20.45-72.864-52.42-72.864-5.18 0-10.652.864-16.988 2.304z" fill="currentColor" fill-rule="evenodd"/></svg>
